<svg width="364" height="302" viewBox="0 0 364 302" fill="none" xmlns="http://www.w3.org/2000/svg">
<path fill-rule="evenodd" clip-rule="evenodd" d="M131.481 2.7095C53.3912 52.6158 10.0114 110.695 1.33125 176.979C-12.1815 280.146 80.5307 330.64 127.509 285.275C174.487 239.899 146.332 182.314 112.316 166.566C78.3011 150.829 57.4979 156.309 61.1276 135.267C64.7572 114.235 113.146 55.9078 155.665 28.7462C157.172 27.4713 158.133 25.6723 158.353 23.7163C158.572 21.7603 158.034 19.7946 156.847 18.2201L146.332 4.60833C141.769 -1.29457 137.392 -1.06754 131.481 2.69917V2.7095ZM337.087 2.7095C258.997 52.6158 215.607 110.706 206.937 176.979C193.424 280.146 286.136 330.64 333.115 285.275C380.093 239.899 351.937 182.314 317.912 166.566C283.896 150.829 263.093 156.309 266.723 135.267C270.352 114.235 318.751 55.9078 361.271 28.7462C362.776 27.4698 363.735 25.6702 363.953 23.7143C364.17 21.7583 363.63 19.7934 362.442 18.2201L351.927 4.60833C347.364 -1.29457 342.987 -1.06754 337.087 2.69917V2.7095Z" fill="black" fill-opacity="0.05"/>
</svg>
