<svg width="225" height="347" viewBox="0 0 225 347" fill="none" xmlns="http://www.w3.org/2000/svg">
<path opacity="0.1" d="M181.136 0C182.286 0 183.437 0.043635 184.542 0.043635C256.168 1.78933 313.662 57.3896 313.662 125.69C313.662 148.297 307.355 169.55 296.308 187.88C296.814 182.905 297.09 177.93 297.09 172.824C297.09 86.0627 222.841 15.7112 131.375 15.7112C120.005 15.7112 108.912 16.8023 98.1861 18.8535C123.135 6.8082 151.307 0 181.136 0ZM366 171.645C365.954 143.321 358.773 116.656 346.022 93.089C348.186 103.214 349.382 113.732 349.382 124.555C349.428 211.316 275.271 281.711 183.76 281.798C178.42 281.798 173.126 281.537 167.878 281.056C187.212 291.531 209.629 297.466 233.474 297.466C305.514 297.422 364.113 242.826 365.908 174.962C365.908 173.784 366 172.693 366 171.645ZM185.094 347C214.969 346.956 243.095 340.105 267.952 328.016C257.273 330.067 246.179 331.201 234.763 331.201C143.251 331.332 68.9558 261.068 68.8177 174.307C68.8177 169.245 69.0939 164.226 69.6003 159.251C58.5987 177.581 52.2923 198.834 52.3383 221.441C52.4304 289.741 110.016 345.254 181.642 346.913C182.793 346.913 183.944 347 185.094 347ZM0 175.617C0.0460319 203.941 7.31906 230.606 20.0699 254.173C17.8604 244.048 16.7096 233.53 16.6636 222.707C16.4794 135.946 90.5448 65.4635 182.056 65.2889C187.396 65.2889 192.69 65.5508 197.937 66.0308C178.558 55.6003 156.186 49.6649 132.342 49.7086C60.3019 49.7959 1.74921 104.436 0.0460242 172.343C0.0460242 173.435 0 174.526 0 175.617ZM240.379 117.485C208.202 86.9791 156.094 86.9791 123.918 117.485C91.7417 147.991 91.7417 197.394 123.918 227.9C156.094 258.406 208.202 258.406 240.379 227.9C272.555 197.438 272.555 147.991 240.379 117.485ZM182.148 172.693C179.801 174.918 179.755 177.799 179.386 177.581C179.018 177.319 178.512 176.882 178.052 176.14C177.637 175.398 177.315 174.438 177.453 173.26C177.545 172.125 178.098 170.816 179.11 169.856C180.123 168.896 181.458 168.372 182.701 168.241C183.944 168.11 185.002 168.416 185.739 168.808C186.521 169.201 186.982 169.681 187.258 170.03C187.534 170.423 184.542 170.467 182.148 172.693ZM190.802 160.56C189.744 160.473 188.225 160.385 186.429 160.604C182.839 160.953 178.42 162.655 174.967 165.928C171.515 169.201 169.766 173.435 169.398 176.839C169.167 178.541 169.259 179.981 169.352 180.985C169.444 181.988 169.582 182.599 169.582 182.599C169.582 182.599 169.167 182.163 168.523 181.29C167.925 180.417 167.096 179.021 166.59 177.1C166.083 175.18 165.853 172.693 166.498 170.03C167.096 167.368 168.615 164.532 171.009 162.218C173.402 159.949 176.394 158.509 179.202 157.942C182.01 157.331 184.634 157.549 186.66 158.029C188.685 158.509 190.158 159.294 191.125 159.862C192.045 160.429 192.506 160.866 192.506 160.866C192.506 160.866 191.907 160.647 190.802 160.56ZM194.623 150.26C192.874 149.955 190.342 149.606 187.304 149.693C184.266 149.824 180.675 150.348 177.085 151.744C173.494 153.097 169.904 155.279 166.774 158.203C163.69 161.171 161.434 164.575 160.007 167.979C158.534 171.383 158.028 174.787 157.89 177.668C157.798 180.548 158.166 182.949 158.488 184.607C158.856 186.265 159.132 187.182 159.132 187.182C159.132 187.182 158.534 186.44 157.659 184.912C156.785 183.385 155.68 181.028 155.082 177.93C154.483 174.831 154.345 170.86 155.496 166.67C156.647 162.48 159.086 158.072 162.815 154.494C166.59 150.915 171.239 148.602 175.658 147.511C180.077 146.376 184.22 146.551 187.534 147.075C190.848 147.642 193.288 148.689 194.899 149.519C196.51 150.348 197.293 150.915 197.293 150.915C197.293 150.915 196.372 150.566 194.623 150.26ZM198.444 139.961C196.05 139.394 192.506 138.783 188.179 138.826C183.852 138.87 178.742 139.481 173.586 141.357C168.385 143.234 163.183 146.289 158.626 150.479C154.207 154.756 150.985 159.731 149.051 164.662C147.072 169.594 146.428 174.438 146.428 178.541C146.428 182.643 147.072 186.004 147.67 188.273C148.269 190.542 148.729 191.808 148.729 191.808C148.729 191.808 147.947 190.717 146.842 188.578C145.737 186.44 144.356 183.123 143.62 178.803C142.929 174.482 142.837 169.07 144.54 163.353C146.197 157.636 149.558 151.701 154.667 146.769C159.869 141.925 166.129 138.695 172.159 137.124C178.19 135.509 183.898 135.553 188.455 136.208C193.058 136.906 196.51 138.215 198.766 139.219C201.068 140.266 202.218 141.008 202.218 141.008C202.218 141.008 200.883 140.528 198.444 139.961ZM202.31 129.618C199.226 128.876 194.715 127.959 189.099 127.916C183.529 127.872 176.855 128.527 170.042 130.927C163.275 133.284 156.371 137.255 150.478 142.754C144.678 148.384 140.536 154.887 138.05 161.346C135.564 167.805 134.874 174.133 134.92 179.414C135.012 184.738 135.932 189.015 136.761 191.939C137.589 194.863 138.234 196.434 138.234 196.434C138.234 196.434 138.004 196.085 137.589 195.387C137.175 194.688 136.577 193.641 135.932 192.244C134.597 189.451 132.94 185.218 132.112 179.675C131.329 174.176 131.329 167.281 133.539 160.036C135.702 152.792 140.029 145.285 146.474 139.044C153.056 132.891 160.974 128.788 168.569 126.694C176.21 124.555 183.437 124.555 189.283 125.297C195.129 126.039 199.595 127.61 202.541 128.876C205.487 130.141 207.006 131.058 207.006 131.058C207.006 131.058 205.395 130.403 202.31 129.618ZM210.412 120.627C209.445 120.322 208.018 119.842 206.131 119.362C202.402 118.358 196.833 117.223 189.974 117.049C183.115 116.918 174.921 117.66 166.498 120.584C158.12 123.42 149.558 128.308 142.285 135.073C135.15 142.012 130.04 150.086 127.048 158.072C124.056 166.059 123.228 173.827 123.412 180.33C123.596 186.833 124.839 192.07 125.897 195.648C126.404 197.438 126.91 198.791 127.232 199.707C127.601 200.624 127.785 201.104 127.785 201.104C127.785 201.104 127.508 200.667 127.002 199.795C126.542 198.922 125.805 197.656 125.023 195.91C123.458 192.506 121.478 187.313 120.558 180.548C119.683 173.827 119.775 165.492 122.491 156.72C125.161 147.991 130.455 138.913 138.28 131.32C146.243 123.857 155.818 118.838 165.025 116.307C174.277 113.688 183.069 113.601 190.158 114.387C197.293 115.259 202.771 117.092 206.361 118.576C208.156 119.318 209.537 119.973 210.458 120.409C211.379 120.889 211.839 121.107 211.839 121.107C211.839 121.107 211.425 120.933 210.412 120.627ZM215.015 110.59C213.864 110.197 212.161 109.629 209.952 109.018C205.533 107.797 198.996 106.4 190.848 106.138C182.747 105.92 172.988 106.749 162.999 110.153C153.01 113.47 142.837 119.274 134.183 127.348C125.667 135.597 119.591 145.242 116.139 154.756C112.594 164.27 111.72 173.522 111.996 181.203C112.272 188.928 113.791 195.125 115.08 199.271C115.724 201.366 116.323 202.98 116.737 204.071C117.151 205.162 117.381 205.73 117.381 205.73C117.381 205.73 117.059 205.206 116.507 204.159C115.954 203.111 115.126 201.584 114.251 199.576C112.456 195.518 110.2 189.364 109.188 181.421C108.221 173.522 108.359 163.702 111.627 153.403C114.804 143.147 121.064 132.498 130.224 123.639C139.569 114.91 150.755 108.975 161.572 105.92C172.436 102.778 182.747 102.647 191.125 103.52C199.502 104.48 205.993 106.575 210.274 108.277C212.437 109.106 214.049 109.891 215.153 110.415C216.212 110.939 216.81 111.244 216.81 111.244C216.81 111.244 216.166 110.982 215.015 110.59Z" fill="white"/>
</svg>
