<svg width="308" height="52" viewBox="0 0 308 52" fill="none" xmlns="http://www.w3.org/2000/svg">
<path d="M180.621 20.1368V31.8632H178.241V26.9516L178.455 23.6554L173.391 31.8632H170.667V20.1368H173.041V25.0419L172.827 28.3446L177.891 20.1368H180.621Z" fill="white"/>
<path d="M194.632 20.1368V31.8632H192.259V27.0039H187.091V31.8632H184.718V20.1368H187.091V24.728H192.259V20.1368H194.632Z" fill="white"/>
<path d="M211.543 31.8632L207.439 26.4349V31.8632H205.066V26.4349L200.942 31.8632H198.017L202.569 25.8332L198.27 20.1368H201.162L205.066 25.2642V20.1368H207.439V25.2642L211.323 20.1368H214.215L209.916 25.8332L214.461 31.8632H211.543Z" fill="white"/>
<path d="M227.714 20.1368V31.8632H225.341V26.9516L225.555 23.6554L220.491 31.8632H217.768V20.1368H220.141V25.0419L219.927 28.3446L224.991 20.1368H227.714Z" fill="white"/>
<path d="M241.733 20.1368V31.8632H239.36V27.0039H234.192V31.8632H231.819V20.1368H234.192V24.728H239.36V20.1368H241.733Z" fill="white"/>
<path d="M255.784 20.1368V31.8632H253.411V26.9516L253.625 23.6554L248.561 31.8632H245.838V20.1368H248.211V25.0419L247.997 28.3446L253.061 20.1368H255.784Z" fill="white"/>
<path d="M268.907 24.074C268.907 26.5396 267.26 28.0765 264.77 28.0765H262.261V31.8632H259.888V20.1368H264.77C267.26 20.1368 268.907 21.6084 268.907 24.074ZM266.495 24.1067C266.495 23.0668 265.898 22.4128 264.666 22.4128H262.254V25.8005H264.666C265.898 25.8005 266.495 25.1269 266.495 24.1067Z" fill="white"/>
<path d="M282.439 20.1368V31.8632H280.066V26.9516L280.28 23.6554L275.216 31.8632H272.493V20.1368H274.866V25.0419L274.652 28.3446L279.716 20.1368H282.439Z" fill="white"/>
<path d="M296.458 20.1368V31.8632H294.085V27.0039H288.917V31.8632H286.537V20.1368H288.917V24.728H294.085V20.1368H296.458Z" fill="white"/>
<path d="M308 22.4128H303.014V31.8632H300.641V20.1368H308V22.4128Z" fill="white"/>
<path d="M74.0544 13.6687C67.2202 13.6687 61.8644 19.0839 61.8644 25.9967C61.8644 32.9096 67.2202 38.3247 74.0544 38.3247C80.9081 38.3247 86.2769 32.9096 86.2769 25.9967C86.2769 19.0839 80.9081 13.6687 74.0544 13.6687ZM81.6278 25.9967C81.6278 30.4113 78.3728 33.7402 74.0544 33.7402C69.736 33.7402 66.481 30.4113 66.481 25.9967C66.481 21.5626 69.736 18.2206 74.0544 18.2206C78.3728 18.2206 81.6278 21.5626 81.6278 25.9967Z" fill="white"/>
<path d="M109.431 14.1592H96.2817C93.9928 14.1592 92.0865 15.9381 91.9114 18.2467L91.0037 30.2804C90.874 31.0652 90.7378 31.68 90.5952 32.1574C90.3747 32.903 89.6744 33.4262 88.8963 33.4262H87.1456V42.1506H91.8466V37.8734H107.856V42.1572H112.557V33.4262H109.431V14.1592ZM104.73 18.6391V33.4262H94.8876C95.3999 32.419 95.6009 30.954 95.6268 30.7644L96.4114 19.9994C96.4697 19.2277 97.1052 18.6326 97.8703 18.6326H104.73V18.6391Z" fill="white"/>
<path d="M126.44 25.2119L136.562 14.1592H130.758L122.219 23.4657H121.447V14.1592H116.74V37.8734H121.447V28.0437H122.887L131.757 37.8734H137.93L126.44 25.2119Z" fill="white"/>
<path d="M154.847 8.78986H153.537V43.2102H154.847V8.78986Z" fill="white"/>
<path d="M25.5148 0C25.6769 0 25.839 0.00653896 25.9947 0.00653896C36.0839 0.268141 44.1825 8.60018 44.1825 18.8354C44.1825 22.2231 43.2942 25.4081 41.738 28.155C41.8093 27.4094 41.8482 26.6638 41.8482 25.8986C41.8482 12.897 31.3894 2.35442 18.5055 2.35442C16.904 2.35442 15.3413 2.51792 13.8305 2.8253C17.3449 1.02025 21.3132 0 25.5148 0ZM51.5549 25.722C51.5484 21.4776 50.5369 17.4816 48.7408 13.9499C49.0455 15.4672 49.2141 17.0434 49.2141 18.6653C49.2206 31.667 38.7748 42.2161 25.8844 42.2292C25.1323 42.2292 24.3866 42.1899 23.6474 42.118C26.3707 43.6876 29.5285 44.577 32.8872 44.577C43.0348 44.5705 51.289 36.3889 51.5419 26.2191C51.5419 26.0425 51.5549 25.879 51.5549 25.722ZM26.0725 52C30.2806 51.9935 34.2424 50.9667 37.7438 49.1551C36.2395 49.4625 34.6768 49.6325 33.0688 49.6325C20.1784 49.6521 9.71314 39.1226 9.69369 26.121C9.69369 25.3623 9.7326 24.6102 9.80392 23.8647C8.25423 26.6115 7.36591 29.7965 7.37239 33.1843C7.38536 43.4194 15.4969 51.7384 25.5862 51.9869C25.7483 51.9869 25.9104 52 26.0725 52ZM0 26.3172C0.00648407 30.5617 1.03097 34.5577 2.82705 38.0893C2.51582 36.572 2.35372 34.9959 2.34723 33.3739C2.3213 20.3723 12.7542 9.81009 25.6445 9.78393C26.3967 9.78393 27.1423 9.82317 27.8815 9.89511C25.1517 8.33204 22.0005 7.44259 18.6417 7.44913C8.49414 7.46221 0.246394 15.6504 0.00648299 25.8267C0.00648299 25.9902 0 26.1537 0 26.3172ZM33.8598 17.6058C29.3275 13.0343 21.9875 13.0343 17.4551 17.6058C12.9228 22.1773 12.9228 29.5807 17.4551 34.1522C21.9875 38.7237 29.3275 38.7237 33.8598 34.1522C38.3922 29.5872 38.3922 22.1773 33.8598 17.6058ZM25.6575 25.879C25.3268 26.2126 25.3203 26.6442 25.2684 26.6115C25.2166 26.5723 25.1452 26.5069 25.0804 26.3957C25.022 26.2845 24.9767 26.1406 24.9961 25.964C25.0091 25.794 25.0869 25.5978 25.2295 25.4539C25.3722 25.31 25.5602 25.2315 25.7353 25.2119C25.9104 25.1923 26.0595 25.2381 26.1632 25.2969C26.2735 25.3558 26.3383 25.4277 26.3772 25.4801C26.4161 25.5389 25.9947 25.5455 25.6575 25.879ZM26.8765 24.0609C26.7274 24.0478 26.5134 24.0347 26.2605 24.0674C25.7547 24.1197 25.1323 24.3748 24.646 24.8653C24.1597 25.3558 23.9133 25.9902 23.8614 26.5003C23.829 26.7554 23.8419 26.9712 23.8549 27.1216C23.8679 27.272 23.8873 27.3636 23.8873 27.3636C23.8873 27.3636 23.829 27.2982 23.7382 27.1674C23.6539 27.0366 23.5372 26.8273 23.4659 26.5396C23.3945 26.2518 23.3621 25.879 23.4529 25.4801C23.5372 25.0811 23.7512 24.656 24.0883 24.3094C24.4255 23.9693 24.847 23.7535 25.2425 23.6685C25.638 23.5769 26.0076 23.6096 26.2929 23.6816C26.5782 23.7535 26.7857 23.8712 26.9219 23.9562C27.0516 24.0413 27.1164 24.1067 27.1164 24.1067C27.1164 24.1067 27.0321 24.074 26.8765 24.0609ZM27.4147 22.5174C27.1683 22.4716 26.8116 22.4193 26.3837 22.4324C25.9557 22.452 25.45 22.5305 24.9442 22.7398C24.4385 22.9425 23.9327 23.2695 23.4918 23.7077C23.0574 24.1524 22.7396 24.6626 22.5386 25.1727C22.3312 25.6828 22.2598 26.1929 22.2404 26.6246C22.2274 27.0562 22.2793 27.4159 22.3247 27.6644C22.3765 27.913 22.4154 28.0503 22.4154 28.0503C22.4154 28.0503 22.3312 27.9391 22.208 27.7102C22.0848 27.4813 21.9291 27.1282 21.8448 26.6638C21.7606 26.1995 21.7411 25.6043 21.9032 24.9765C22.0653 24.3486 22.409 23.6881 22.9342 23.1518C23.4659 22.6155 24.1208 22.2689 24.7432 22.1054C25.3657 21.9354 25.9493 21.9615 26.4161 22.04C26.883 22.125 27.2266 22.282 27.4536 22.4062C27.6805 22.5305 27.7907 22.6155 27.7907 22.6155C27.7907 22.6155 27.6611 22.5632 27.4147 22.5174ZM27.9528 20.974C27.6157 20.8889 27.1164 20.7974 26.5069 20.8039C25.8974 20.8105 25.1777 20.902 24.4514 21.1833C23.7187 21.4645 22.986 21.9223 22.3441 22.5501C21.7216 23.191 21.2678 23.9366 20.9954 24.6756C20.7166 25.4147 20.6258 26.1406 20.6258 26.7554C20.6258 27.3701 20.7166 27.8737 20.8009 28.2138C20.8852 28.5539 20.95 28.7436 20.95 28.7436C20.95 28.7436 20.8398 28.5801 20.6842 28.2596C20.5286 27.9391 20.3341 27.4421 20.2303 26.7946C20.1331 26.1472 20.1201 25.3362 20.36 24.4794C20.5934 23.6227 21.0668 22.7332 21.7865 21.9942C22.5192 21.2683 23.401 20.7843 24.2504 20.5489C25.0999 20.3069 25.9039 20.3134 26.5458 20.4115C27.1942 20.5162 27.6805 20.7124 27.9982 20.8628C28.3224 21.0197 28.4845 21.1309 28.4845 21.1309C28.4845 21.1309 28.2965 21.059 27.9528 20.974ZM28.4975 19.424C28.0631 19.3128 27.4276 19.1755 26.6366 19.1689C25.852 19.1624 24.9118 19.2605 23.9522 19.6202C22.999 19.9733 22.0264 20.5685 21.1964 21.3925C20.3794 22.2362 19.7959 23.2107 19.4457 24.1786C19.0956 25.1465 18.9983 26.0948 19.0048 26.8862C19.0178 27.6841 19.1475 28.325 19.2642 28.7632C19.3809 29.2014 19.4717 29.4368 19.4717 29.4368C19.4717 29.4368 19.4393 29.3845 19.3809 29.2798C19.3225 29.1752 19.2382 29.0182 19.1475 28.809C18.9594 28.3904 18.726 27.756 18.6093 26.9254C18.4991 26.1014 18.4991 25.068 18.8103 23.9824C19.1151 22.8967 19.7246 21.7719 20.6323 20.8366C21.5595 19.9145 22.6748 19.2997 23.7447 18.9858C24.821 18.6653 25.839 18.6653 26.6625 18.7765C27.486 18.8877 28.1149 19.1231 28.5299 19.3128C28.9449 19.5025 29.1589 19.6398 29.1589 19.6398C29.1589 19.6398 28.9319 19.5417 28.4975 19.424ZM29.6387 18.0767C29.5025 18.0309 29.3015 17.959 29.0357 17.8871C28.5105 17.7366 27.7259 17.5666 26.7598 17.5404C25.7936 17.5208 24.6395 17.632 23.4529 18.0702C22.2728 18.4953 21.0668 19.2278 20.0423 20.2415C19.0372 21.2813 18.3175 22.4913 17.896 23.6881C17.4746 24.8849 17.3579 26.0491 17.3838 27.0235C17.4097 27.998 17.5848 28.7828 17.7339 29.3191C17.8053 29.5872 17.8766 29.79 17.922 29.9273C17.9739 30.0646 17.9998 30.1366 17.9998 30.1366C17.9998 30.1366 17.9609 30.0712 17.8896 29.9404C17.8247 29.8096 17.721 29.6199 17.6107 29.3583C17.3903 28.8482 17.1115 28.0699 16.9818 27.0562C16.8586 26.0491 16.8716 24.7999 17.2541 23.4853C17.6302 22.1773 18.3759 20.817 19.4782 19.679C20.5999 18.5607 21.9486 17.8086 23.2454 17.4293C24.5487 17.0368 25.7872 17.0238 26.7857 17.1415C27.7907 17.2723 28.5623 17.547 29.0681 17.7693C29.321 17.8805 29.5155 17.9786 29.6452 18.044C29.7749 18.116 29.8397 18.1487 29.8397 18.1487C29.8397 18.1487 29.7814 18.1225 29.6387 18.0767ZM30.2871 16.5725C30.125 16.5136 29.8851 16.4286 29.5739 16.3371C28.9514 16.1539 28.0307 15.9447 26.883 15.9054C25.7418 15.8727 24.3672 15.997 22.9601 16.5071C21.5531 17.0042 20.1201 17.874 18.9011 19.0839C17.7015 20.32 16.8456 21.7653 16.3593 23.191C15.86 24.6168 15.7368 26.0033 15.7758 27.1543C15.8147 28.3119 16.0286 29.2406 16.2102 29.8619C16.301 30.1758 16.3853 30.4178 16.4436 30.5813C16.502 30.7448 16.5344 30.8298 16.5344 30.8298C16.5344 30.8298 16.489 30.7514 16.4112 30.5944C16.3334 30.4374 16.2167 30.2085 16.0935 29.9077C15.8406 29.2995 15.5229 28.3773 15.3802 27.187C15.2441 26.0033 15.2635 24.5318 15.7239 22.9883C16.1713 21.4514 17.0531 19.8556 18.3434 18.528C19.6597 17.22 21.2353 16.3305 22.7591 15.8727C24.2893 15.4018 25.7418 15.3822 26.9219 15.513C28.102 15.6569 29.0162 15.9708 29.6193 16.2259C29.924 16.3501 30.1509 16.4679 30.3066 16.5463C30.4557 16.6248 30.54 16.6706 30.54 16.6706C30.54 16.6706 30.4492 16.6314 30.2871 16.5725Z" fill="white"/>
</svg>
