<svg width="164" height="26" viewBox="0 0 164 26" fill="none" xmlns="http://www.w3.org/2000/svg">
<path d="M96.1747 10.0684V15.9316H94.9076V13.4758L95.0215 11.8277L92.3251 15.9316H90.875V10.0684H92.1386V12.5209L92.0247 14.1723L94.7211 10.0684H96.1747Z" fill="#898A8F"/>
<path d="M103.635 10.0684V15.9316H102.372V13.502H99.6201V15.9316H98.3564V10.0684H99.6201V12.364H102.372V10.0684H103.635Z" fill="#898A8F"/>
<path d="M112.64 15.9316L110.454 13.2175V15.9316H109.19V13.2175L106.995 15.9316H105.438L107.861 12.9166L105.572 10.0684H107.112L109.19 12.6321V10.0684H110.454V12.6321L112.522 10.0684H114.062L111.773 12.9166L114.193 15.9316H112.64Z" fill="#898A8F"/>
<path d="M121.25 10.0684V15.9316H119.987V13.4758L120.101 11.8277L117.404 15.9316H115.954V10.0684H117.218V12.5209L117.104 14.1723L119.8 10.0684H121.25Z" fill="#898A8F"/>
<path d="M128.715 10.0684V15.9316H127.451V13.502H124.699V15.9316H123.436V10.0684H124.699V12.364H127.451V10.0684H128.715Z" fill="#898A8F"/>
<path d="M136.197 10.0684V15.9316H134.933V13.4758L135.047 11.8277L132.35 15.9316H130.9V10.0684H132.164V12.5209L132.05 14.1723L134.747 10.0684H136.197Z" fill="#898A8F"/>
<path d="M143.184 12.037C143.184 13.2698 142.307 14.0382 140.982 14.0382H139.645V15.9316H138.382V10.0684H140.982C142.307 10.0684 143.184 10.8042 143.184 12.037ZM141.9 12.0533C141.9 11.5334 141.582 11.2064 140.926 11.2064H139.642V12.9003H140.926C141.582 12.9003 141.9 12.5635 141.9 12.0533Z" fill="#898A8F"/>
<path d="M150.39 10.0684V15.9316H149.126V13.4758L149.24 11.8277L146.544 15.9316H145.094V10.0684H146.357V12.5209L146.243 14.1723L148.94 10.0684H150.39Z" fill="#898A8F"/>
<path d="M157.855 10.0684V15.9316H156.591V13.502H153.839V15.9316H152.572V10.0684H153.839V12.364H156.591V10.0684H157.855Z" fill="#898A8F"/>
<path d="M164 11.2064H161.345V15.9316H160.081V10.0684H164V11.2064Z" fill="#898A8F"/>
<path d="M39.4312 6.83437C35.7922 6.83437 32.9404 9.54195 32.9404 12.9984C32.9404 16.4548 35.7922 19.1624 39.4312 19.1624C43.0806 19.1624 45.9393 16.4548 45.9393 12.9984C45.9393 9.54195 43.0806 6.83437 39.4312 6.83437ZM43.4638 12.9984C43.4638 15.2056 41.7306 16.8701 39.4312 16.8701C37.1318 16.8701 35.3987 15.2056 35.3987 12.9984C35.3987 10.7813 37.1318 9.1103 39.4312 9.1103C41.7306 9.1103 43.4638 10.7813 43.4638 12.9984Z" fill="#898A8F"/>
<path d="M58.2688 7.07959H51.267C50.0482 7.07959 49.0332 7.96904 48.94 9.12336L48.4566 15.1402C48.3876 15.5326 48.3151 15.84 48.2391 16.0787C48.1217 16.4515 47.7488 16.7131 47.3345 16.7131H46.4023V21.0753H48.9054V18.9367H57.4298V21.0786H59.9329V16.7131H58.2688V7.07959ZM55.7657 9.31956V16.7131H50.5247C50.7975 16.2095 50.9045 15.477 50.9183 15.3822L51.336 9.99972C51.3671 9.61386 51.7055 9.31629 52.1129 9.31629H55.7657V9.31956Z" fill="#898A8F"/>
<path d="M67.3252 12.6059L72.7146 7.07959H69.6246L65.0776 11.7328H64.6667V7.07959H62.1602V18.9367H64.6667V14.0219H65.4332L70.1563 18.9367H73.4431L67.3252 12.6059Z" fill="#898A8F"/>
<path d="M82.4513 4.39493H81.7539V21.6051H82.4513V4.39493Z" fill="#898A8F"/>
<path d="M13.5858 0C13.6721 0 13.7584 0.00326948 13.8413 0.00326948C19.2135 0.134071 23.5257 4.30009 23.5257 9.41768C23.5257 11.1116 23.0527 12.7041 22.2241 14.0775C22.2621 13.7047 22.2828 13.3319 22.2828 12.9493C22.2828 6.4485 16.7138 1.17721 9.8536 1.17721C9.00082 1.17721 8.16875 1.25896 7.36431 1.41265C9.23559 0.510124 11.3486 0 13.5858 0ZM27.4513 12.861C27.4478 10.7388 26.9092 8.74079 25.9529 6.97497C26.1152 7.73362 26.2049 8.52169 26.2049 9.33266C26.2084 15.8335 20.6463 21.108 13.7826 21.1146C13.3821 21.1146 12.9851 21.095 12.5915 21.059C14.0416 21.8438 15.723 22.2885 17.5114 22.2885C22.9146 22.2852 27.3097 18.1944 27.4444 13.1095C27.4444 13.0213 27.4513 12.9395 27.4513 12.861ZM13.8827 26C16.1234 25.9967 18.233 25.4833 20.0973 24.5775C19.2964 24.7312 18.4643 24.8163 17.6081 24.8163C10.7444 24.8261 5.17193 19.5613 5.16157 13.0605C5.16157 12.6812 5.18229 12.3051 5.22027 11.9323C4.39511 13.3057 3.92211 14.8983 3.92556 16.5921C3.93246 21.7097 8.25161 25.8692 13.6238 25.9935C13.7101 25.9935 13.7964 26 13.8827 26ZM0 13.1586C0.00345256 15.2808 0.548956 17.2788 1.50531 19.0447C1.33959 18.286 1.25328 17.4979 1.24983 16.687C1.23602 10.1861 6.79118 4.90504 13.6549 4.89196C14.0554 4.89196 14.4524 4.91158 14.846 4.94755C13.3925 4.16602 11.7145 3.72129 9.92611 3.72456C4.52285 3.7311 0.131197 7.82518 0.00345198 12.9133C0.00345198 12.9951 0 13.0768 0 13.1586ZM18.0293 8.80292C15.6159 6.51717 11.7076 6.51717 9.29429 8.80292C6.88095 11.0887 6.88095 14.7903 9.29429 17.0761C11.7076 19.3618 15.6159 19.3618 18.0293 17.0761C20.4426 14.7936 20.4426 11.0887 18.0293 8.80292ZM13.6618 12.9395C13.4857 13.1063 13.4822 13.3221 13.4546 13.3057C13.427 13.2861 13.389 13.2534 13.3545 13.1978C13.3234 13.1422 13.2993 13.0703 13.3096 12.982C13.3165 12.897 13.358 12.7989 13.4339 12.727C13.5099 12.655 13.61 12.6158 13.7032 12.606C13.7964 12.5962 13.8758 12.619 13.9311 12.6485C13.9898 12.6779 14.0243 12.7139 14.045 12.74C14.0657 12.7695 13.8413 12.7727 13.6618 12.9395ZM14.3109 12.0304C14.2314 12.0239 14.1175 12.0174 13.9829 12.0337C13.7136 12.0599 13.3821 12.1874 13.1232 12.4327C12.8642 12.6779 12.733 12.9951 12.7054 13.2502C12.6882 13.3777 12.6951 13.4856 12.702 13.5608C12.7089 13.636 12.7192 13.6818 12.7192 13.6818C12.7192 13.6818 12.6882 13.6491 12.6398 13.5837C12.5949 13.5183 12.5328 13.4137 12.4948 13.2698C12.4568 13.1259 12.4396 12.9395 12.4879 12.74C12.5328 12.5406 12.6467 12.328 12.8263 12.1547C13.0058 11.9847 13.2302 11.8767 13.4408 11.8342C13.6514 11.7885 13.8482 11.8048 14.0001 11.8408C14.152 11.8767 14.2625 11.9356 14.335 11.9781C14.4041 12.0206 14.4386 12.0533 14.4386 12.0533C14.4386 12.0533 14.3937 12.037 14.3109 12.0304ZM14.5974 11.2587C14.4662 11.2358 14.2763 11.2097 14.0485 11.2162C13.8206 11.226 13.5513 11.2653 13.282 11.3699C13.0127 11.4713 12.7434 11.6348 12.5086 11.8539C12.2773 12.0762 12.1081 12.3313 12.0011 12.5863C11.8906 12.8414 11.8526 13.0965 11.8423 13.3123C11.8354 13.5281 11.863 13.708 11.8872 13.8322C11.9148 13.9565 11.9355 14.0252 11.9355 14.0252C11.9355 14.0252 11.8906 13.9696 11.825 13.8551C11.7594 13.7407 11.6766 13.5641 11.6317 13.3319C11.5868 13.0997 11.5764 12.8022 11.6627 12.4882C11.7491 12.1743 11.932 11.844 12.2117 11.5759C12.4948 11.3078 12.8435 11.1344 13.175 11.0527C13.5064 10.9677 13.8171 10.9808 14.0657 11.02C14.3143 11.0625 14.4973 11.141 14.6181 11.2031C14.739 11.2652 14.7977 11.3078 14.7977 11.3078C14.7977 11.3078 14.7286 11.2816 14.5974 11.2587ZM14.884 10.487C14.7044 10.4445 14.4386 10.3987 14.1141 10.402C13.7895 10.4052 13.4063 10.451 13.0196 10.5916C12.6295 10.7322 12.2393 10.9611 11.8975 11.2751C11.5661 11.5955 11.3244 11.9683 11.1794 12.3378C11.0309 12.7073 10.9826 13.0703 10.9826 13.3777C10.9826 13.6851 11.0309 13.9369 11.0758 14.1069C11.1207 14.2769 11.1552 14.3718 11.1552 14.3718C11.1552 14.3718 11.0965 14.29 11.0137 14.1298C10.9308 13.9696 10.8272 13.721 10.772 13.3973C10.7202 13.0736 10.7133 12.6681 10.841 12.2397C10.9653 11.8113 11.2174 11.3666 11.6006 10.9971C11.9907 10.6341 12.4603 10.3922 12.9126 10.2744C13.3649 10.1534 13.793 10.1567 14.1348 10.2058C14.48 10.2581 14.739 10.3562 14.9081 10.4314C15.0808 10.5099 15.1671 10.5655 15.1671 10.5655C15.1671 10.5655 15.067 10.5295 14.884 10.487ZM15.174 9.71199C14.9427 9.6564 14.6043 9.58773 14.1831 9.58446C13.7654 9.58119 13.2647 9.63023 12.7538 9.81009C12.2462 9.98667 11.7283 10.2842 11.2864 10.6963C10.8514 11.1181 10.5407 11.6053 10.3542 12.0893C10.1678 12.5733 10.116 13.0474 10.1195 13.4431C10.1264 13.842 10.1954 14.1625 10.2576 14.3816C10.3197 14.6007 10.368 14.7184 10.368 14.7184C10.368 14.7184 10.3508 14.6922 10.3197 14.6399C10.2886 14.5876 10.2437 14.5091 10.1954 14.4045C10.0953 14.1952 9.97099 13.878 9.90884 13.4627C9.85015 13.0507 9.85015 12.534 10.0159 11.9912C10.1781 11.4484 10.5027 10.8859 10.986 10.4183C11.4798 9.95724 12.0736 9.64986 12.6433 9.4929C13.2164 9.33266 13.7584 9.33266 14.1969 9.38825C14.6354 9.44385 14.9703 9.56157 15.1913 9.6564C15.4122 9.75123 15.5262 9.8199 15.5262 9.8199C15.5262 9.8199 15.4053 9.77085 15.174 9.71199ZM15.7816 9.03836C15.7091 9.01547 15.6021 8.9795 15.4606 8.94353C15.1809 8.86832 14.7631 8.7833 14.2487 8.77022C13.7343 8.76041 13.1197 8.816 12.4879 9.03509C11.8595 9.24764 11.2174 9.61389 10.6719 10.1207C10.1367 10.6407 9.75348 11.2456 9.52906 11.844C9.30465 12.4425 9.2425 13.0245 9.25631 13.5118C9.27012 13.999 9.36334 14.3914 9.44275 14.6595C9.48073 14.7936 9.51871 14.895 9.54287 14.9637C9.57049 15.0323 9.5843 15.0683 9.5843 15.0683C9.5843 15.0683 9.56359 15.0356 9.52561 14.9702C9.49109 14.9048 9.43584 14.81 9.37715 14.6792C9.25976 14.4241 9.1113 14.035 9.04225 13.5281C8.97665 13.0245 8.98356 12.4 9.18726 11.7427C9.38751 11.0887 9.78455 10.4085 10.3715 9.83952C10.9688 9.28034 11.6869 8.90429 12.3774 8.71463C13.0714 8.51843 13.7308 8.51189 14.2625 8.57075C14.7977 8.63615 15.2085 8.77349 15.4778 8.88467C15.6125 8.94026 15.716 8.98931 15.7851 9.02201C15.8542 9.05798 15.8887 9.07433 15.8887 9.07433C15.8887 9.07433 15.8576 9.06125 15.7816 9.03836ZM16.1269 8.28625C16.0406 8.25682 15.9128 8.21431 15.7471 8.16853C15.4157 8.07697 14.9254 7.97233 14.3143 7.95271C13.7067 7.93636 12.9747 7.99849 12.2255 8.25355C11.4763 8.50208 10.7133 8.93699 10.0642 9.54194C9.42549 10.16 8.96975 10.8827 8.71081 11.5955C8.44496 12.3084 8.37936 13.0016 8.40008 13.5772C8.42079 14.156 8.53473 14.6203 8.6314 14.931C8.67973 15.0879 8.72462 15.2089 8.75569 15.2907C8.78676 15.3724 8.80403 15.4149 8.80403 15.4149C8.80403 15.4149 8.77986 15.3757 8.73843 15.2972C8.697 15.2187 8.63485 15.1043 8.56925 14.9538C8.4346 14.6497 8.26543 14.1887 8.18947 13.5935C8.11697 13.0016 8.12732 12.2659 8.37246 11.4942C8.61068 10.7257 9.08023 9.92781 9.76729 9.26399C10.4682 8.60999 11.3071 8.16526 12.1185 7.93636C12.9333 7.70092 13.7067 7.69111 14.335 7.75651C14.9634 7.82845 15.4502 7.98541 15.7713 8.11294C15.9336 8.17507 16.0544 8.23393 16.1373 8.27317C16.2167 8.31241 16.2616 8.3353 16.2616 8.3353C16.2616 8.3353 16.2132 8.31568 16.1269 8.28625Z" fill="#898A8F"/>
</svg>
